<?xml version='1.0' encoding='UTF-8' standalone='no'?>
<svg xmlns="http://www.w3.org/2000/svg" xmlns:xlink="http://www.w3.org/1999/xlink" viewBox="0 0 576 432" width="576pt" height="432pt">
 <title>gl2ps_renderer figure</title>
 <desc>
Creator: GL2PS 1.4.0, (C) 1999-2017 C. Geuzaine
For: Octave
CreationDate: Sun Jul 28 23:26:24 2019
</desc>
 <defs/>
 <polygon fill="#ffffff" points="0,0 576,0 576,432 0,432"/>
 <g>
  <polygon fill="#ffffff" points="0,432 576,432 576,0 0,0" shape-rendering="crispEdges"/>
  <clipPath id="cp00576432">
   <polygon points="0,432 576,432 576,0 0,0"/>
  </clipPath>
  <g clip-path="url(#cp00576432)">
   <polygon fill="#ffffff" shape-rendering="crispEdges" points="74.88,384.48 521.28,384.48 521.28,32.4 74.88,32.4"/>
   <polyline fill="none" stroke-linejoin="miter" points="74.88,384.48 74.88,380.015" stroke-linecap="butt" stroke="#262626" stroke-width="0.5"/>
   <polyline fill="none" stroke-linejoin="miter" points="74.88,32.4 74.88,36.865" stroke-linecap="butt" stroke="#262626" stroke-width="0.5"/>
   <polyline fill="none" stroke-linejoin="miter" points="186.48,384.48 186.48,380.015" stroke-linecap="butt" stroke="#262626" stroke-width="0.5"/>
   <polyline fill="none" stroke-linejoin="miter" points="186.48,32.4 186.48,36.865" stroke-linecap="butt" stroke="#262626" stroke-width="0.5"/>
   <polyline fill="none" stroke-linejoin="miter" points="298.08,384.48 298.08,380.015" stroke-linecap="butt" stroke="#262626" stroke-width="0.5"/>
   <polyline fill="none" stroke-linejoin="miter" points="298.08,32.4 298.08,36.865" stroke-linecap="butt" stroke="#262626" stroke-width="0.5"/>
   <polyline fill="none" stroke-linejoin="miter" points="409.68,384.48 409.68,380.015" stroke-linecap="butt" stroke="#262626" stroke-width="0.5"/>
   <polyline fill="none" stroke-linejoin="miter" points="409.68,32.4 409.68,36.865" stroke-linecap="butt" stroke="#262626" stroke-width="0.5"/>
   <polyline fill="none" stroke-linejoin="miter" points="521.28,384.48 521.28,380.015" stroke-linecap="butt" stroke="#262626" stroke-width="0.5"/>
   <polyline fill="none" stroke-linejoin="miter" points="521.28,32.4 521.28,36.865" stroke-linecap="butt" stroke="#262626" stroke-width="0.5"/>
   <text xml:space="preserve" font-family="FreeSans" transform="translate(71.88,399.982) rotate(-0,3,-8)" font-weight="normal" font-style="normal" font-size="10">
    <tspan fill="rgb(38,38,38)" y="-0" x="0 ">0</tspan>
   </text>
   <text xml:space="preserve" font-family="FreeSans" transform="translate(183.48,399.982) rotate(-0,3,-8)" font-weight="normal" font-style="normal" font-size="10">
    <tspan fill="rgb(38,38,38)" y="-0" x="0 ">1</tspan>
   </text>
   <text xml:space="preserve" font-family="FreeSans" transform="translate(295.08,399.982) rotate(-0,3,-8)" font-weight="normal" font-style="normal" font-size="10">
    <tspan fill="rgb(38,38,38)" y="-0" x="0 ">2</tspan>
   </text>
   <text xml:space="preserve" font-family="FreeSans" transform="translate(406.68,399.982) rotate(-0,3,-8)" font-weight="normal" font-style="normal" font-size="10">
    <tspan fill="rgb(38,38,38)" y="-0" x="0 ">3</tspan>
   </text>
   <text xml:space="preserve" font-family="FreeSans" transform="translate(518.28,399.982) rotate(-0,3,-8)" font-weight="normal" font-style="normal" font-size="10">
    <tspan fill="rgb(38,38,38)" y="-0" x="0 ">4</tspan>
   </text>
   <polyline fill="none" stroke-linejoin="miter" points="74.88,384.48 79.348,384.48" stroke-linecap="butt" stroke="#262626" stroke-width="0.5"/>
   <polyline fill="none" stroke-linejoin="miter" points="521.28,384.48 516.812,384.48" stroke-linecap="butt" stroke="#262626" stroke-width="0.5"/>
   <polyline fill="none" stroke-linejoin="miter" points="74.88,296.46 79.348,296.46" stroke-linecap="butt" stroke="#262626" stroke-width="0.5"/>
   <polyline fill="none" stroke-linejoin="miter" points="521.28,296.46 516.812,296.46" stroke-linecap="butt" stroke="#262626" stroke-width="0.5"/>
   <polyline fill="none" stroke-linejoin="miter" points="74.88,208.44 79.348,208.44" stroke-linecap="butt" stroke="#262626" stroke-width="0.5"/>
   <polyline fill="none" stroke-linejoin="miter" points="521.28,208.44 516.812,208.44" stroke-linecap="butt" stroke="#262626" stroke-width="0.5"/>
   <polyline fill="none" stroke-linejoin="miter" points="74.88,120.42 79.348,120.42" stroke-linecap="butt" stroke="#262626" stroke-width="0.5"/>
   <polyline fill="none" stroke-linejoin="miter" points="521.28,120.42 516.812,120.42" stroke-linecap="butt" stroke="#262626" stroke-width="0.5"/>
   <polyline fill="none" stroke-linejoin="miter" points="74.88,32.4 79.348,32.4" stroke-linecap="butt" stroke="#262626" stroke-width="0.5"/>
   <polyline fill="none" stroke-linejoin="miter" points="521.28,32.4 516.812,32.4" stroke-linecap="butt" stroke="#262626" stroke-width="0.5"/>
   <text xml:space="preserve" font-family="FreeSans" transform="translate(63.8755,388.48) rotate(-0,6,-4)" font-weight="normal" font-style="normal" font-size="10">
    <tspan fill="rgb(38,38,38)" y="-0" x="0 ">2</tspan>
   </text>
   <text xml:space="preserve" font-family="FreeSans" transform="translate(54.8755,300.46) rotate(-0,15,-4)" font-weight="normal" font-style="normal" font-size="10">
    <tspan fill="rgb(38,38,38)" y="-0" x="0 6 9 ">2.5</tspan>
   </text>
   <text xml:space="preserve" font-family="FreeSans" transform="translate(63.8755,212.44) rotate(-0,6,-4)" font-weight="normal" font-style="normal" font-size="10">
    <tspan fill="rgb(38,38,38)" y="-0" x="0 ">3</tspan>
   </text>
   <text xml:space="preserve" font-family="FreeSans" transform="translate(54.8755,124.42) rotate(-0,15,-4)" font-weight="normal" font-style="normal" font-size="10">
    <tspan fill="rgb(38,38,38)" y="-0" x="0 6 9 ">3.5</tspan>
   </text>
   <text xml:space="preserve" font-family="FreeSans" transform="translate(63.8755,36.4) rotate(-0,6,-4)" font-weight="normal" font-style="normal" font-size="10">
    <tspan fill="rgb(38,38,38)" y="-0" x="0 ">4</tspan>
   </text>
   <polyline fill="none" stroke-linejoin="miter" points="74.88,384.48 521.28,384.48" stroke-dasharray="16,0" stroke-linecap="square" stroke="#262626" stroke-width="0.5"/>
   <polyline fill="none" stroke-linejoin="miter" points="74.88,32.4 521.28,32.4" stroke-dasharray="16,0" stroke-linecap="square" stroke="#262626" stroke-width="0.5"/>
   <polyline fill="none" stroke-linejoin="miter" points="74.88,384.48 74.88,32.4" stroke-dasharray="16,0" stroke-linecap="square" stroke="#262626" stroke-width="0.5"/>
   <polyline fill="none" stroke-linejoin="miter" points="521.28,384.48 521.28,32.4" stroke-dasharray="16,0" stroke-linecap="square" stroke="#262626" stroke-width="0.5"/>
   <polyline fill="none" stroke-linejoin="round" points="186.48,208.44 242.392,384.832" stroke-linecap="butt" stroke="#0071bc" stroke-width="0.5"/>
   <polyline fill="none" stroke-linejoin="round" points="186.48,32.4 186.554,32.0479" stroke-linecap="butt" stroke="#d85218" stroke-width="0.5"/>
  </g>
 </g>
</svg>
